# xmcd
#
# Track frame offsets:
#	150
#	23152
#	43300
#	71875
#	87127
#	110872
#	138590
#	168270
#
# Disc length: 2567 seconds
#
# Revision: 2
# Processed by: cddbd v1.5.1PL2 Copyright (c) Steve Scherf et al.
# Submitted via: EasyCDDAExtractor 9.0.0.1
#
DISCID=720a0508
DTITLE=Lightnin' Hopkins - The Complete Prestige/Bluesville Recordings - Disc 
DTITLE=7 (Lightnin' Hopkins as interviewed by Samuel Charters)
DYEAR=1991
DGENRE=Blues
TTITLE0=I Growed Up With The Blues
TTITLE1=My Family
TTITLE2=I Learn About The Blues
TTITLE3=I First Come Into Houston
TTITLE4=I Meet Texas Alexander
TTITLE5=They Was Hard Times
TTITLE6=I Do My First Record And Get My Name
TTITLE7=My Thoughts On The Blues
EXTD=
EXTT0=
EXTT1=
EXTT2=
EXTT3=
EXTT4=
EXTT5=
EXTT6=
EXTT7=
PLAYORDER=
